<?xml version="1.0" standalone="no"?>
<!DOCTYPE svg PUBLIC "-//W3C//DTD SVG 20010904//EN"
 "http://www.w3.org/TR/2001/REC-SVG-20010904/DTD/svg10.dtd">
<svg version="1.0" xmlns="http://www.w3.org/2000/svg"
 width="700.000000pt" height="700.000000pt" viewBox="0 0 700.000000 700.000000"
 preserveAspectRatio="xMidYMid meet">
<metadata>
Created by potrace 1.14, written by Peter Selinger 2001-2017
</metadata>
<g transform="translate(0.000000,700.000000) scale(0.100000,-0.100000)"
fill="#000000" stroke="none">
<path d="M990 6939 c-209 -36 -388 -167 -480 -351 -71 -142 -72 -153 -68 -789
5 -644 -1 -588 104 -1013 l65 -259 -306 -916 -305 -916 0 -253 0 -252 130 0
c96 0 130 -3 130 -12 0 -7 -39 -131 -87 -275 l-87 -262 37 -54 38 -55 402 -5
c293 -4 433 -9 517 -21 109 -16 469 -85 628 -122 l73 -16 206 -412 c113 -226
225 -439 250 -473 82 -116 215 -204 369 -243 74 -19 112 -20 894 -20 784 0
820 1 896 20 151 38 285 127 367 243 25 34 138 248 251 475 113 226 208 412
211 412 3 0 167 36 365 80 l360 80 444 0 444 0 38 56 38 55 -87 262 c-48 144
-87 268 -87 275 0 9 34 12 130 12 l130 0 0 252 0 253 -305 916 -306 916 56
224 c115 457 107 383 112 1038 4 506 3 582 -12 648 -36 159 -138 307 -279 401
-178 119 -402 142 -606 61 -105 -42 -410 -202 -500 -262 -235 -157 -407 -357
-546 -639 -37 -74 -64 -118 -74 -118 -8 0 -73 11 -143 25 -567 111 -1228 111
-1797 0 -69 -14 -132 -25 -140 -25 -9 0 -40 49 -79 126 -146 289 -313 482
-555 642 -108 71 -486 258 -561 277 -77 20 -205 27 -275 14z m350 -523 c223
-112 323 -178 419 -274 110 -110 159 -184 270 -409 141 -284 161 -356 161
-578 l0 -121 -216 -214 -216 -215 -65 129 c-141 281 -163 395 -163 854 l0 323
-107 -3 -108 -3 1 -355 c1 -397 7 -457 69 -648 19 -59 68 -176 109 -259 l75
-153 -27 -14 c-53 -27 -168 -64 -247 -79 -80 -15 -195 -30 -195 -24 0 1 -38
153 -84 337 -118 469 -126 513 -136 735 -13 271 -12 834 1 893 22 104 116 175
224 169 52 -3 83 -14 235 -91z m4656 75 c57 -26 110 -92 123 -153 13 -59 14
-610 1 -888 -10 -225 -24 -304 -145 -778 -41 -162 -75 -296 -75 -298 0 -7
-110 7 -195 23 -79 15 -194 52 -247 79 l-27 14 75 153 c83 169 134 315 160
457 14 78 17 158 18 450 l1 355 -107 3 -108 3 0 -323 c0 -459 -22 -573 -163
-854 l-65 -129 -216 215 -216 214 0 121 c0 135 11 221 41 313 28 91 208 449
265 529 70 98 189 214 285 276 69 45 381 208 439 230 33 12 117 6 156 -12z
m-4246 -3756 c0 -179 1 -325 3 -325 1 0 117 38 257 85 140 47 258 85 262 85 3
0 -9 -26 -28 -57 -46 -77 -54 -110 -54 -235 l0 -106 434 5 434 6 4 -99 c5
-120 16 -144 109 -237 101 -101 119 -107 329 -107 210 0 228 6 329 107 93 93
104 117 109 236 l4 97 434 0 434 0 0 103 c0 120 -8 153 -54 230 -19 31 -31 57
-28 57 4 0 122 -38 262 -85 140 -47 256 -85 257 -85 2 0 3 146 3 325 0 179 3
325 8 324 4 0 200 -98 437 -217 l429 -217 103 -310 c57 -170 106 -318 109
-327 5 -17 -10 -18 -213 -18 l-219 0 -474 -105 c-261 -58 -483 -109 -494 -113
-12 -5 -112 -193 -275 -517 l-256 -510 -49 -30 -49 -30 -795 -3 -794 -2 -53
24 c-28 13 -61 36 -72 52 -11 16 -131 250 -266 521 -161 321 -252 493 -264
497 -10 3 -232 53 -493 111 l-474 105 -219 0 c-203 0 -218 1 -213 18 3 9 52
157 109 327 l103 310 429 217 c237 119 433 217 438 217 4 1 7 -145 7 -324z"/>
<path d="M2364 1850 c-12 -4 -31 -21 -44 -37 -21 -27 -22 -35 -18 -168 4 -121
8 -149 31 -208 48 -123 139 -229 245 -284 31 -17 155 -64 274 -104 l217 -74
216 107 215 108 215 -107 215 -108 208 70 c114 38 237 84 273 102 113 56 206
162 256 290 23 59 27 87 31 208 4 141 4 141 -23 173 -33 40 -80 50 -128 27
-19 -9 -39 -26 -45 -38 -6 -12 -13 -72 -16 -134 -6 -122 -20 -173 -63 -235
-48 -71 -104 -102 -296 -167 l-178 -60 -225 112 -224 112 -224 -112 -225 -112
-178 60 c-192 65 -248 96 -296 167 -43 62 -57 113 -63 235 -6 128 -14 150 -59
172 -36 17 -59 18 -91 5z"/>
</g>
</svg>
