<?xml version="1.0" standalone="no"?>
<!DOCTYPE svg PUBLIC "-//W3C//DTD SVG 20010904//EN"
 "http://www.w3.org/TR/2001/REC-SVG-20010904/DTD/svg10.dtd">
<svg version="1.0" xmlns="http://www.w3.org/2000/svg"
 width="480.000000pt" height="480.000000pt" viewBox="0 0 480.000000 480.000000"
 preserveAspectRatio="xMidYMid meet">
<metadata>
Created by potrace 1.14, written by Peter Selinger 2001-2017
</metadata>
<g transform="translate(0.000000,480.000000) scale(0.100000,-0.100000)"
fill="#000000" stroke="none">
<path d="M1595 4709 c-106 -17 -228 -102 -305 -214 -72 -104 -106 -191 -146
-370 -13 -58 -12 -330 1 -411 56 -344 198 -607 423 -786 46 -37 130 -78 192
-94 82 -21 265 -16 323 9 48 21 152 124 198 197 58 91 113 246 127 360 7 57 6
335 -1 375 -19 105 -38 190 -51 234 -23 80 -85 229 -117 283 -16 27 -29 51
-29 53 0 13 -73 109 -128 167 -147 156 -313 223 -487 197z"/>
<path d="M3225 4625 c-207 -48 -415 -241 -539 -498 -34 -72 -82 -191 -92 -227
-45 -175 -55 -248 -56 -390 -2 -262 66 -454 207 -595 133 -132 303 -185 483
-151 126 24 257 120 378 277 24 32 44 61 44 64 0 4 8 19 19 33 47 68 130 257
145 332 29 138 38 197 37 263 0 26 -2 51 -6 56 -3 5 -2 12 2 14 9 6 7 209 -1
267 -15 99 -32 163 -57 214 -10 22 -19 44 -19 48 0 5 -22 42 -49 82 -73 108
-163 178 -271 211 -41 13 -171 13 -225 0z"/>
<path d="M460 3390 c-127 -40 -231 -133 -294 -262 -51 -103 -68 -183 -69 -313
-1 -135 6 -201 33 -305 38 -149 87 -258 175 -390 39 -58 177 -210 190 -210 3
0 28 -18 56 -40 54 -42 197 -117 239 -125 14 -3 36 -8 50 -11 14 -4 72 -8 130
-9 157 -3 250 35 330 137 94 119 111 179 115 408 2 102 -1 208 -6 235 -6 28
-12 61 -14 75 -2 14 -4 25 -5 25 -1 0 -3 7 -5 15 -24 119 -124 337 -194 423
-83 102 -107 127 -193 204 -47 41 -187 117 -258 138 -80 24 -212 26 -280 5z"/>
<path d="M4125 3104 c-259 -58 -472 -235 -614 -509 -22 -43 -41 -86 -41 -95 0
-9 -4 -20 -9 -25 -4 -6 -16 -38 -25 -73 -37 -134 -41 -170 -41 -337 0 -138 2
-157 29 -237 15 -49 33 -88 39 -88 6 0 8 -3 4 -6 -15 -16 166 -224 195 -224 5
0 22 -8 36 -19 27 -18 103 -48 152 -58 54 -11 207 -9 255 4 140 38 293 158
419 325 47 64 105 164 107 185 0 5 4 13 9 18 4 6 17 40 29 76 40 121 42 141
46 349 3 237 -19 341 -103 478 -76 124 -159 190 -281 222 -39 10 -180 20 -206
14z"/>
<path d="M2255 2425 c-33 -7 -71 -17 -85 -22 -14 -6 -29 -12 -35 -13 -50 -12
-194 -84 -280 -141 -333 -219 -695 -651 -900 -1074 -75 -154 -97 -215 -134
-375 -26 -111 -22 -228 10 -308 13 -31 29 -63 36 -70 7 -7 13 -17 13 -21 0
-16 98 -103 153 -136 32 -19 59 -35 61 -35 2 0 21 -8 42 -17 49 -21 40 -19
162 -41 56 -11 102 -16 102 -12 0 4 15 5 33 1 17 -3 77 -5 132 -4 55 2 107 3
115 3 50 -1 74 2 155 16 50 8 101 17 115 19 14 2 37 8 51 13 14 6 41 13 60 16
19 3 53 12 77 20 24 9 46 15 50 15 4 -1 9 0 12 1 3 1 12 3 20 5 8 2 25 6 38 9
12 3 32 8 45 11 24 5 79 18 87 20 15 5 118 19 135 19 38 0 160 -27 174 -38 8
-6 15 -10 15 -8 2 5 45 -10 109 -38 64 -28 189 -63 265 -74 124 -19 320 -12
402 13 162 51 305 196 346 351 15 58 17 211 3 265 -4 16 -10 46 -13 65 -7 46
-47 169 -80 248 -163 386 -438 774 -726 1023 -275 239 -535 338 -765 294z"/>
</g>
</svg>
