<?xml version="1.0" standalone="no"?>
<!DOCTYPE svg PUBLIC "-//W3C//DTD SVG 20010904//EN"
 "http://www.w3.org/TR/2001/REC-SVG-20010904/DTD/svg10.dtd">
<svg version="1.0" xmlns="http://www.w3.org/2000/svg"
 width="512.000000pt" height="512.000000pt" viewBox="0 0 512.000000 512.000000"
 preserveAspectRatio="xMidYMid meet">
<metadata>
Created by potrace 1.14, written by Peter Selinger 2001-2017
</metadata>
<g transform="translate(0.000000,512.000000) scale(0.100000,-0.100000)"
fill="#000000" stroke="none">
<path d="M1095 4763 c-12 -2 -34 -14 -50 -27 l-30 -24 -3 -679 -3 -678 -31
-60 c-17 -33 -60 -109 -95 -169 -35 -60 -63 -110 -63 -113 0 -2 -16 -29 -35
-59 -19 -30 -35 -56 -35 -58 0 -3 -20 -39 -45 -80 -25 -42 -45 -81 -45 -86 0
-6 -4 -10 -9 -10 -5 0 -13 -10 -17 -22 -4 -13 -17 -39 -29 -58 -22 -35 -31
-51 -120 -210 -27 -47 -56 -96 -66 -110 -48 -70 -20 -157 56 -173 60 -13 103
-37 109 -61 11 -40 6 -65 -34 -184 -58 -171 -50 -208 46 -217 86 -9 102 -15
124 -49 27 -45 25 -75 -10 -187 -38 -122 -40 -138 -24 -170 26 -52 67 -54 379
-23 33 4 67 8 75 9 8 1 49 6 90 10 41 4 82 9 90 10 8 2 44 6 80 10 36 4 68 9
71 10 3 2 44 7 92 11 117 9 163 -13 195 -91 11 -28 38 -143 48 -210 3 -16 9
-46 14 -65 8 -32 36 -164 46 -218 5 -24 33 -78 67 -127 58 -83 165 -151 271
-171 44 -8 688 -7 728 1 100 20 179 65 243 138 41 47 71 96 75 122 1 6 5 15
10 20 4 6 11 28 15 50 4 22 11 54 15 70 5 17 12 44 14 60 3 17 20 99 37 183
53 255 69 264 389 218 19 -3 60 -8 90 -11 30 -4 66 -8 80 -10 14 -2 54 -7 90
-11 344 -36 412 -37 441 -7 26 26 32 85 13 130 -7 18 -22 67 -34 108 -18 64
-19 80 -9 114 14 47 56 72 128 76 25 1 54 5 63 9 15 7 41 60 33 68 -2 1 -6 17
-9 33 -3 17 -22 73 -42 125 -28 73 -35 103 -31 135 6 43 44 85 76 85 64 0 127
61 117 115 -4 21 -102 203 -173 320 -7 11 -15 27 -19 35 -5 8 -23 38 -41 67
-18 29 -33 54 -33 57 0 5 -71 131 -99 176 -10 15 -125 215 -147 255 -6 11 -34
63 -62 116 l-51 97 -3 643 c-1 354 -4 654 -6 667 -11 60 -103 96 -149 58 -10
-9 -36 -29 -58 -45 -22 -17 -44 -34 -50 -39 -19 -15 -230 -176 -450 -344 -121
-93 -227 -174 -235 -181 -8 -7 -60 -46 -115 -87 -55 -41 -102 -77 -105 -80
-19 -21 -141 -106 -170 -118 -26 -11 -76 -16 -195 -17 -175 -1 -208 4 -269 43
-41 27 -138 98 -211 157 -19 15 -467 358 -700 535 -60 46 -137 105 -171 131
-66 52 -97 67 -129 62z"/>
</g>
</svg>
